<?xml version="1.0" encoding="UTF-8" standalone="no"?>
<!-- Created with Inkscape (http://www.inkscape.org/) -->

<svg
   version="1.1"
   id="svg1"
   width="258.66666"
   height="258.66666"
   viewBox="0 0 258.66666 258.66666"
   sodipodi:docname="Universal_Records.eps"
   xmlns:inkscape="http://www.inkscape.org/namespaces/inkscape"
   xmlns:sodipodi="http://sodipodi.sourceforge.net/DTD/sodipodi-0.dtd"
   xmlns="http://www.w3.org/2000/svg"
   xmlns:svg="http://www.w3.org/2000/svg">
  <defs
     id="defs1" />
  <sodipodi:namedview
     id="namedview1"
     pagecolor="#ffffff"
     bordercolor="#000000"
     borderopacity="0.25"
     inkscape:showpageshadow="2"
     inkscape:pageopacity="0.0"
     inkscape:pagecheckerboard="0"
     inkscape:deskcolor="#d1d1d1">
    <inkscape:page
       x="0"
       y="0"
       inkscape:label="1"
       id="page1"
       width="258.66666"
       height="258.66666"
       margin="0"
       bleed="0" />
  </sodipodi:namedview>
  <g
     id="g1"
     inkscape:groupmode="layer"
     inkscape:label="1">
    <path
       id="path1"
       d="M 2.59766,1933.23 H 1930.16 V 5.66797 H 2.59766 V 1933.23"
       style="fill:#ffffff;fill-opacity:1;fill-rule:evenodd;stroke:none"
       transform="matrix(0.13333333,0,0,-0.13333333,0,258.66667)" />
    <path
       id="path2"
       d="m 555.535,1106.11 c 57.719,178.26 193.535,314.08 421.028,314.08 210.517,0 366.707,-139.21 422.727,-317.47 -59.42,166.37 -225.79,286.91 -422.727,286.91 -195.235,0 -359.911,-118.84 -421.028,-283.52"
       style="fill:#0b0c0b;fill-opacity:1;fill-rule:evenodd;stroke:none"
       transform="matrix(0.13333333,0,0,-0.13333333,0,258.66667)" />
    <path
       id="path3"
       d="m 1397.59,834.484 c -56.02,-178.261 -217.3,-315.773 -421.027,-315.773 -215.606,0 -361.61,135.816 -419.333,312.375 61.118,-164.676 225.797,-281.82 419.333,-281.82 195.237,0 361.617,118.839 421.027,285.218"
       style="fill:#0b0c0b;fill-opacity:1;fill-rule:evenodd;stroke:none"
       transform="matrix(0.13333333,0,0,-0.13333333,0,258.66667)" />
    <path
       id="path4"
       d="m 1090.31,1114.6 c -8.49,-3.39 -18.68,0 -27.16,-6.79 0,1.7 -1.7,5.1 -5.1,3.4 h -3.39 c 8.49,6.79 -5.09,13.58 8.49,13.58 10.18,0 18.67,-6.79 27.16,-10.19"
       style="fill:#0b0c0b;fill-opacity:1;fill-rule:evenodd;stroke:none"
       transform="matrix(0.13333333,0,0,-0.13333333,0,258.66667)" />
    <path
       id="path5"
       d="m 1901.81,898.992 v 44.145 l -11.88,-10.188 h -79.79 v 117.141 l 10.18,13.58 h -67.91 l 10.19,-13.58 V 910.879 l -10.19,-11.887 h 149.4"
       style="fill:#0b0c0b;fill-opacity:1;fill-rule:evenodd;stroke:none"
       transform="matrix(0.13333333,0,0,-0.13333333,0,258.66667)" />
    <path
       id="path6"
       d="m 1628.48,958.414 h -54.32 l 27.16,57.726 z m 78.09,-59.422 -79.79,164.678 h -56.02 l 6.79,-13.58 -74.7,-151.098 h 61.12 l -10.19,11.887 8.49,16.976 h 78.1 l 8.48,-16.976 -11.88,-11.887 h 69.6"
       style="fill:#0b0c0b;fill-opacity:1;fill-rule:evenodd;stroke:none"
       transform="matrix(0.13333333,0,0,-0.13333333,0,258.66667)" />
    <path
       id="path7"
       d="m 1462.11,946.531 c 0,27.16 -22.07,40.746 -52.63,50.93 -18.68,6.789 -47.54,10.189 -47.54,23.769 0,6.79 8.49,10.18 22.07,10.18 16.98,0 45.84,-6.78 69.61,-16.97 v 54.33 l -13.58,-11.89 c -13.58,5.1 -37.35,10.19 -54.33,10.19 -56.02,0 -73,-23.77 -73,-45.84 0,-30.562 18.67,-44.14 50.93,-56.023 23.77,-8.492 45.84,-8.492 45.84,-22.07 0,-11.887 -13.59,-13.582 -20.37,-13.582 -16.98,0 -49.24,6.789 -76.4,25.465 v -61.122 l 13.58,13.586 c 11.89,-5.093 40.75,-13.586 64.51,-13.586 49.24,0 71.31,22.075 71.31,52.633"
       style="fill:#0b0c0b;fill-opacity:1;fill-rule:evenodd;stroke:none"
       transform="matrix(0.13333333,0,0,-0.13333333,0,258.66667)" />
    <path
       id="path8"
       d="m 1197.27,1009.34 c 0,-11.879 -11.89,-20.367 -27.17,-20.367 h -32.25 v 40.737 h 37.35 c 11.88,0 22.07,-6.78 22.07,-20.37 z m 56.02,-110.348 -44.14,64.516 c 22.07,8.488 37.35,25.465 37.35,49.232 0,28.86 -16.98,50.93 -64.51,50.93 h -101.86 l 10.18,-13.58 V 910.879 l -10.18,-11.887 h 67.9 l -10.18,11.887 v 47.535 h 20.37 l 32.25,-47.535 -10.18,-11.887 h 73"
       style="fill:#0b0c0b;fill-opacity:1;fill-rule:evenodd;stroke:none"
       transform="matrix(0.13333333,0,0,-0.13333333,0,258.66667)" />
    <path
       id="path9"
       d="m 1017.31,898.992 v 44.145 l -11.88,-10.188 h -84.891 v 32.258 h 54.328 L 986.75,955.02 v 52.63 l -11.883,-10.189 h -54.328 v 32.249 h 84.891 l 11.88,-11.88 v 45.84 H 862.816 l 10.188,-13.58 V 910.879 l -10.188,-11.887 h 154.494"
       style="fill:#0b0c0b;fill-opacity:1;fill-rule:evenodd;stroke:none"
       transform="matrix(0.13333333,0,0,-0.13333333,0,258.66667)" />
    <path
       id="path10"
       d="m 822.074,1063.67 h -59.418 l 10.184,-13.58 -40.746,-89.977 -40.746,89.977 11.886,13.58 h -69.605 l 76.394,-164.678 h 33.957 l 78.094,164.678"
       style="fill:#0b0c0b;fill-opacity:1;fill-rule:evenodd;stroke:none"
       transform="matrix(0.13333333,0,0,-0.13333333,0,258.66667)" />
    <path
       id="path11"
       d="M 591.188,898.992 581,910.879 v 139.211 l 10.188,13.58 h -69.61 l 10.188,-13.58 V 910.879 l -10.188,-11.887 h 69.61"
       style="fill:#0b0c0b;fill-opacity:1;fill-rule:evenodd;stroke:none"
       transform="matrix(0.13333333,0,0,-0.13333333,0,258.66667)" />
    <path
       id="path12"
       d="m 457.07,1063.67 h -57.722 l 10.183,-13.58 v -81.488 l -84.883,95.068 h -50.933 l 10.187,-13.58 V 910.879 l -10.187,-11.887 h 57.723 l -10.184,11.887 v 84.883 l 88.277,-96.77 h 37.352 v 151.098 l 10.187,13.58"
       style="fill:#0b0c0b;fill-opacity:1;fill-rule:evenodd;stroke:none"
       transform="matrix(0.13333333,0,0,-0.13333333,0,258.66667)" />
    <path
       id="path13"
       d="m 217.691,1063.67 h -69.605 l 10.187,-13.58 v -89.977 c 0,-20.375 -13.582,-28.863 -33.957,-28.863 -20.371,0 -33.9527,8.488 -33.9527,28.863 v 89.977 l 10.1877,13.58 H 30.9453 l 10.1836,-13.58 v -91.676 c 0,-45.84 25.4688,-62.816 83.1871,-62.816 56.028,0 81.493,16.976 81.493,62.816 v 91.676 l 11.882,13.58"
       style="fill:#0b0c0b;fill-opacity:1;fill-rule:evenodd;stroke:none"
       transform="matrix(0.13333333,0,0,-0.13333333,0,258.66667)" />
    <path
       id="path14"
       d="m 1110.68,1109.51 c -1.69,-1.7 -3.39,-3.4 -6.79,-3.4 v 6.8 c 1.7,0 3.4,-1.7 6.79,-3.4"
       style="fill:#0b0c0b;fill-opacity:1;fill-rule:evenodd;stroke:none"
       transform="matrix(0.13333333,0,0,-0.13333333,0,258.66667)" />
    <path
       id="path15"
       d="m 1283.85,844.668 c -3.4,5.094 0,11.883 0,11.883 h -247.87 l 27.17,-23.766 c 6.79,-3.394 13.58,-8.488 16.98,-18.676 8.48,-22.07 -3.4,-3.394 -3.4,-37.347 0,-30.563 -8.49,-25.469 -8.49,-25.469 0,0 -1.7,-35.648 -20.37,-57.719 -11.89,-11.883 -3.4,-22.07 -3.4,-22.07 0,0 -3.39,-3.399 -10.18,-28.859 -1.7,-8.493 10.18,-22.075 18.67,-18.676 6.79,3.39 -16.98,5.09 10.19,16.976 10.18,3.391 1.69,11.883 1.69,11.883 0,0 16.98,1.699 25.47,27.164 16.98,-3.394 11.89,6.789 45.84,15.278 10.19,1.699 11.88,5.093 10.19,13.582 -1.7,8.488 11.88,-1.7 45.83,33.953 27.17,27.164 16.98,33.957 35.65,44.14 20.38,10.188 22.07,-1.699 28.87,6.793 15.27,20.371 10.18,18.676 16.97,32.254 l 3.4,6.793 c 0,0 10.18,8.488 6.79,11.883"
       style="fill:#0b0c0b;fill-opacity:1;fill-rule:evenodd;stroke:none"
       transform="matrix(0.13333333,0,0,-0.13333333,0,258.66667)" />
    <path
       id="path16"
       d="m 871.309,1131.58 c -10.188,13.58 -3.399,32.26 6.789,50.93 8.488,11.88 28.859,18.67 45.836,11.88 20.375,15.29 25.468,-1.69 42.445,6.79 22.07,8.5 10.184,-27.16 32.254,-35.65 8.497,23.77 -20.371,42.45 -1.695,54.33 13.582,8.49 23.762,13.58 28.862,23.77 8.49,15.28 10.18,27.16 16.97,28.86 13.59,5.09 10.19,18.67 10.19,18.67 0,0 15.28,-5.09 27.17,6.79 -8.5,5.1 -22.08,8.49 -18.68,18.68 5.09,10.19 33.95,-11.88 44.14,6.79 -18.68,6.79 -37.35,23.77 -47.54,28.86 -8.48,-8.49 -11.88,-5.09 -22.07,1.7 -16.97,13.58 -16.97,1.7 -27.16,10.18 -8.49,-16.97 3.4,-15.27 6.79,-18.67 10.19,-11.88 -10.18,10.19 -8.48,-20.37 0,-6.8 -10.192,-8.49 -18.681,8.49 -5.094,8.48 -39.047,6.78 -44.14,15.28 5.093,8.49 45.839,42.44 108.651,33.95 -91.675,37.35 -215.605,-1.7 -215.605,-15.28 -13.585,-8.49 -8.492,-16.97 -15.281,-18.67 -10.187,-5.1 -22.07,-37.35 -22.07,-37.35 0,0 6.789,-3.4 -13.582,-27.17 -16.977,-18.67 -22.07,-47.53 -22.07,-47.53 0,0 11.882,-20.38 8.488,-44.14 -1.699,-18.68 -1.699,-5.1 6.793,-16.98 3.394,-8.49 8.484,-35.65 11.883,-25.47 5.093,20.38 -10.188,39.05 -8.489,59.43 1.7,-3.4 6.789,6.78 6.789,-1.7 0,-25.47 30.559,-71.31 30.559,-71.31 0,0 -11.883,-11.88 0,-11.88 L 816.98,1118 c 0,0 8.489,0 15.278,-5.09 5.097,-5.1 10.187,-10.19 15.281,-10.19 11.887,0 88.281,0 88.281,0 0,0 6.789,27.16 11.883,30.56 5.094,5.09 -10.183,0 -15.277,5.09 -5.094,5.09 -6.793,-3.39 -10.188,-8.49 -1.699,-5.09 -5.093,-11.88 -11.883,-15.28 -6.792,-1.69 -22.07,-3.39 -25.468,-3.39 -3.395,0 -13.578,20.37 -13.578,20.37"
       style="fill:#0b0c0b;fill-opacity:1;fill-rule:evenodd;stroke:none"
       transform="matrix(0.13333333,0,0,-0.13333333,0,258.66667)" />
    <path
       id="path17"
       d="m 986.75,1146.86 c 1.699,5.09 10.188,1.69 16.98,1.69 6.79,0 5.09,-11.88 15.28,-10.18 11.88,3.4 11.88,-10.19 27.16,-8.49 15.28,0 -3.4,-6.79 -3.4,-6.79 0,0 -10.18,5.09 -15.27,1.7 -3.4,-1.7 0,1.69 -5.1,5.09 -8.49,8.49 -6.79,0 -20.37,11.89 -10.186,8.48 -20.374,-1.7 -15.28,5.09"
       style="fill:#0b0c0b;fill-opacity:1;fill-rule:evenodd;stroke:none"
       transform="matrix(0.13333333,0,0,-0.13333333,0,258.66667)" />
  </g>
</svg>
